<svg width="600" height="488" viewBox="0 0 600 488" fill="none" xmlns="http://www.w3.org/2000/svg">
<path d="M537.444 259.85H442.443C436.997 259.85 432.582 255.436 432.582 249.99V220.53C432.582 215.084 436.997 210.669 442.443 210.669H537.444C542.889 210.669 547.304 215.084 547.304 220.53V249.99C547.304 255.436 542.889 259.85 537.444 259.85Z" fill="#A680AE"/>
<path d="M537.443 259.899H442.442C436.978 259.899 432.533 255.453 432.533 249.99V220.53C432.533 215.066 436.978 210.621 442.442 210.621H537.443C542.907 210.621 547.352 215.066 547.352 220.53V249.99C547.352 255.454 542.907 259.899 537.443 259.899ZM442.442 210.717C437.032 210.717 432.63 215.119 432.63 220.53V249.99C432.63 255.4 437.032 259.802 442.442 259.802H537.443C542.853 259.802 547.255 255.4 547.255 249.99V220.53C547.255 215.119 542.853 210.717 537.443 210.717H442.442Z" fill="#A680AE"/>
<path d="M432.581 238.04C431.781 238.04 431.132 237.391 431.132 236.591V220.53C431.132 214.294 436.205 209.22 442.442 209.22H526.749C527.549 209.22 528.198 209.869 528.198 210.669C528.198 211.469 527.55 212.118 526.749 212.118H442.442C437.803 212.118 434.03 215.891 434.03 220.53V236.591C434.03 237.391 433.381 238.04 432.581 238.04Z" fill="#541A30"/>
<path d="M531.682 261.299H457.03C456.23 261.299 455.581 260.651 455.581 259.85C455.581 259.05 456.23 258.401 457.03 258.401H531.682C532.482 258.401 533.131 259.05 533.131 259.85C533.131 260.651 532.482 261.299 531.682 261.299Z" fill="#541A30"/>
<path d="M489.942 327.571C487.345 327.571 485.24 325.466 485.24 322.869V259.873H494.644V322.869C494.645 325.466 492.539 327.571 489.942 327.571Z" fill="#541A30"/>
<path d="M489.942 327.62C487.323 327.62 485.191 325.489 485.191 322.869V259.825H494.692V322.869C494.692 325.489 492.561 327.62 489.942 327.62ZM485.288 259.921V322.869C485.288 325.435 487.376 327.523 489.942 327.523C492.508 327.523 494.596 325.435 494.596 322.869V259.921H485.288Z" fill="#541A30"/>
<path d="M451.242 243.992V243.947L470.684 219.816H470.731V238.937H474.362V243.992H470.731V250.657H464.02V243.992H451.242ZM464.342 234.478L460.802 239.212L460.159 238.936H464.02V234.156L464.342 234.478Z" fill="white"/>
<path d="M470.779 250.706H463.971V244.041H451.193V243.93L451.204 243.917L470.661 219.768H470.779V238.888H474.41V244.041H470.779L470.779 250.706ZM464.068 250.609H470.682V243.944H474.313V238.985H470.682V219.896L451.306 243.944H464.068V250.609ZM460.818 239.271L459.923 238.888H460.984L463.971 234.892V234.04L464.405 234.474L464.068 234.924V238.985H461.032L460.818 239.271ZM460.394 238.985L460.786 239.153L460.911 238.985H460.394ZM461.104 238.888H463.971V235.054L461.104 238.888ZM464.068 234.273V234.763L464.277 234.483L464.068 234.273Z" fill="white"/>
<path d="M490.632 250.703C488.886 250.703 487.238 250.397 485.691 249.784C484.144 249.171 482.78 248.229 481.6 246.957C480.421 245.686 479.493 244.077 478.82 242.131C478.146 240.186 477.809 237.895 477.809 235.259C477.809 232.318 478.131 229.859 478.774 227.883C479.417 225.906 480.314 224.321 481.463 223.125C482.612 221.93 483.968 221.08 485.531 220.574C487.093 220.069 488.794 219.816 490.632 219.816C492.379 219.816 494.026 220.123 495.573 220.736C497.12 221.349 498.484 222.291 499.664 223.562C500.843 224.834 501.771 226.442 502.445 228.389C503.119 230.335 503.456 232.624 503.456 235.259C503.456 237.988 503.119 240.332 502.445 242.292C501.77 244.254 500.836 245.855 499.641 247.095C498.446 248.337 497.082 249.248 495.55 249.83C494.018 250.412 492.379 250.703 490.632 250.703ZM490.586 244.314C492.118 244.314 493.313 243.908 494.172 243.096C495.029 242.285 495.634 241.173 495.987 239.764C496.339 238.356 496.515 236.792 496.515 235.076C496.515 233.391 496.339 231.89 495.987 230.572C495.634 229.255 495.029 228.205 494.172 227.424C493.313 226.642 492.118 226.251 490.586 226.251C489.085 226.251 487.905 226.65 487.047 227.446C486.189 228.243 485.591 229.315 485.255 230.663C484.917 232.012 484.749 233.529 484.749 235.214C484.749 236.899 484.917 238.431 485.255 239.81C485.591 241.189 486.189 242.285 487.047 243.096C487.905 243.908 489.085 244.314 490.586 244.314Z" fill="white"/>
<path d="M490.632 250.752C488.887 250.752 487.218 250.441 485.673 249.829C484.126 249.217 482.744 248.262 481.565 246.99C480.385 245.72 479.447 244.09 478.774 242.147C478.101 240.205 477.76 237.888 477.76 235.259C477.76 232.328 478.085 229.841 478.728 227.868C479.37 225.894 480.279 224.287 481.428 223.092C482.576 221.897 483.952 221.034 485.515 220.528C487.076 220.024 488.797 219.768 490.632 219.768C492.377 219.768 494.045 220.078 495.591 220.691C497.139 221.305 498.521 222.26 499.699 223.529C500.878 224.801 501.817 226.431 502.49 228.373C503.163 230.316 503.504 232.632 503.504 235.259C503.504 237.98 503.163 240.351 502.49 242.308C501.817 244.267 500.87 245.889 499.675 247.129C498.482 248.369 497.099 249.293 495.567 249.875C494.035 250.457 492.375 250.752 490.632 250.752ZM490.632 219.864C488.807 219.864 487.096 220.119 485.545 220.62C483.997 221.122 482.635 221.976 481.497 223.159C480.359 224.343 479.458 225.938 478.82 227.898C478.18 229.861 477.856 232.338 477.856 235.259C477.856 237.877 478.196 240.184 478.865 242.115C479.533 244.046 480.466 245.664 481.635 246.925C482.805 248.185 484.175 249.132 485.709 249.739C487.242 250.347 488.899 250.655 490.632 250.655C492.363 250.655 494.012 250.362 495.533 249.785C497.051 249.208 498.422 248.292 499.606 247.062C500.79 245.832 501.73 244.222 502.399 242.277C503.068 240.33 503.407 237.969 503.407 235.259C503.407 232.643 503.068 230.337 502.399 228.405C501.73 226.475 500.798 224.857 499.628 223.595C498.46 222.336 497.09 221.389 495.555 220.781C494.021 220.173 492.364 219.864 490.632 219.864ZM490.586 244.362C489.078 244.362 487.876 243.948 487.014 243.131C486.153 242.317 485.545 241.204 485.207 239.822C484.871 238.446 484.7 236.896 484.7 235.214C484.7 233.532 484.871 231.997 485.207 230.651C485.545 229.301 486.153 228.211 487.014 227.411C487.877 226.609 489.079 226.203 490.586 226.203C492.123 226.203 493.34 226.601 494.204 227.388C495.064 228.171 495.68 229.238 496.033 230.559C496.385 231.876 496.563 233.396 496.563 235.076C496.563 236.787 496.385 238.369 496.034 239.776C495.68 241.188 495.064 242.317 494.204 243.131C493.341 243.948 492.123 244.362 490.586 244.362ZM490.586 226.299C489.104 226.299 487.925 226.697 487.08 227.482C486.232 228.269 485.634 229.343 485.301 230.675C484.966 232.013 484.797 233.54 484.797 235.214C484.797 236.888 484.966 238.431 485.301 239.799C485.634 241.162 486.233 242.26 487.08 243.061C487.924 243.86 489.103 244.266 490.586 244.266C492.098 244.266 493.293 243.86 494.138 243.061C494.984 242.26 495.591 241.147 495.94 239.752C496.289 238.353 496.467 236.78 496.467 235.076C496.467 233.404 496.289 231.893 495.94 230.584C495.591 229.281 494.985 228.23 494.139 227.459C493.294 226.689 492.098 226.299 490.586 226.299Z" fill="white"/>
<path d="M505.523 243.992V243.947L524.966 219.816H525.012V238.937H528.643V243.992H525.012V250.657H518.301V243.992H505.523ZM518.623 234.478L515.084 239.212L514.44 238.936H518.301V234.156L518.623 234.478Z" fill="white"/>
<path d="M525.06 250.706H518.253V244.041H505.475V243.93L505.485 243.917L524.942 219.768H525.06V238.888H528.691V244.041H525.06L525.06 250.706ZM518.349 250.609H524.963V243.944H528.594V238.985H524.963V219.896L505.587 243.944H518.349V250.609ZM515.099 239.271L514.205 238.888H515.265L518.253 234.892V234.04L518.686 234.474L518.349 234.924V238.985H515.313L515.099 239.271ZM514.675 238.985L515.068 239.153L515.193 238.985H514.675ZM515.386 238.888H518.253V235.054L515.386 238.888ZM518.349 234.273V234.763L518.559 234.483L518.349 234.273Z" fill="white"/>
<path d="M401.92 255.142C428.184 264.292 454.447 273.442 480.711 282.592C480.711 292.083 480.711 301.573 480.711 311.063C452.329 319.534 423.947 328.005 395.565 336.476C397.684 309.364 399.802 282.253 401.92 255.142Z" fill="#FFCD82"/>
<path d="M395.512 336.542L395.517 336.472L401.876 255.076L401.935 255.097L480.76 282.558V311.099L480.725 311.109L395.512 336.542ZM401.963 255.209L395.619 336.409L480.663 311.027V282.626L401.963 255.209Z" fill="#FFCD82"/>
<path d="M496.677 317.921H483.206C476.328 317.921 470.752 312.345 470.752 305.467V287.676C470.752 280.797 476.328 275.221 483.206 275.221H496.677C503.555 275.221 509.131 280.797 509.131 287.676V305.467C509.131 312.345 503.555 317.921 496.677 317.921Z" fill="#FFCD82"/>
<path d="M496.677 317.97H483.207C476.313 317.97 470.704 312.361 470.704 305.467V287.675C470.704 280.782 476.313 275.173 483.207 275.173H496.677C503.571 275.173 509.18 280.782 509.18 287.675V305.467C509.18 312.361 503.571 317.97 496.677 317.97ZM483.207 275.27C476.366 275.27 470.801 280.835 470.801 287.675V305.467C470.801 312.308 476.366 317.873 483.207 317.873H496.677C503.518 317.873 509.083 312.308 509.083 305.467V287.675C509.083 280.835 503.518 275.27 496.677 275.27H483.207Z" fill="#FFCD82"/>
<path d="M471.968 312.289C471.427 312.289 470.909 311.985 470.66 311.465C469.759 309.585 469.303 307.567 469.303 305.467V287.676C469.303 285.642 469.732 283.681 470.58 281.848C470.916 281.122 471.776 280.804 472.503 281.141C473.229 281.476 473.546 282.337 473.21 283.064C472.541 284.513 472.201 286.065 472.201 287.676V305.467C472.201 307.13 472.562 308.727 473.274 310.214C473.619 310.935 473.314 311.801 472.593 312.146C472.391 312.243 472.177 312.289 471.968 312.289Z" fill="#DE7E4B"/>
<path d="M354.586 47.5567L335.521 89.4149L388.349 84.3164L361.631 46.8767C359.804 44.3164 355.89 44.6941 354.586 47.5567Z" fill="#DE7E4B"/>
<path d="M335.443 89.4711L354.543 47.5367C355.162 46.1764 356.42 45.2787 357.908 45.1351C359.396 44.9917 360.802 45.6321 361.671 46.8487L388.437 84.3566L388.354 84.3646L335.443 89.4711ZM354.631 47.5767L335.601 89.3588L388.261 84.2764L361.592 46.9048C360.744 45.7166 359.371 45.0907 357.917 45.2312C356.464 45.3714 355.236 46.2482 354.631 47.5767Z" fill="#DE7E4B"/>
<path d="M294.261 62.5546L291.653 108.476L339.046 84.5883L300.581 59.3691C297.95 57.6445 294.439 59.4142 294.261 62.5546Z" fill="#DE7E4B"/>
<path d="M291.601 108.557L291.605 108.474L294.213 62.552C294.298 61.0597 295.145 59.7672 296.48 59.0945C297.815 58.4217 299.358 58.5092 300.608 59.3288L339.143 84.5938L291.601 108.557ZM294.309 62.5575L291.707 108.395L338.95 84.5828L300.555 59.4096C299.334 58.6091 297.827 58.5237 296.523 59.1807C295.22 59.8377 294.392 61.1 294.309 62.5575Z" fill="#DE7E4B"/>
<path d="M241.934 104.263L256.118 148.017L291.657 108.6L246.673 99.0068C243.597 98.3508 240.964 101.271 241.934 104.263Z" fill="#DE7E4B"/>
<path d="M256.098 148.112L256.072 148.032L241.888 104.278C241.427 102.856 241.749 101.345 242.75 100.235C243.751 99.1247 245.221 98.648 246.683 98.9598L291.749 108.57L256.098 148.112ZM241.98 104.248L256.138 147.923L291.565 108.63L246.663 99.0543C245.235 98.7498 243.8 99.2153 242.822 100.299C241.844 101.384 241.53 102.86 241.98 104.248Z" fill="#DE7E4B"/>
<path d="M209.354 155.395L232.242 195.291L258.904 149.402L212.909 149.276C209.764 149.267 207.788 152.667 209.354 155.395Z" fill="#DE7E4B"/>
<path d="M232.242 195.388L209.312 155.419C208.568 154.123 208.572 152.577 209.323 151.285C210.072 149.996 211.407 149.227 212.897 149.227C212.901 149.227 212.905 149.227 212.909 149.227L258.988 149.354L232.242 195.388ZM212.897 149.324C211.442 149.324 210.138 150.074 209.407 151.333C208.673 152.595 208.669 154.105 209.396 155.371L232.242 195.195L258.821 149.45L212.909 149.324C212.905 149.324 212.901 149.324 212.897 149.324Z" fill="#DE7E4B"/>
<path d="M184.711 206.6L210.732 244.527L233.62 196.644L187.764 200.214C184.627 200.458 182.932 204.006 184.711 206.6Z" fill="#DE7E4B"/>
<path d="M210.74 244.624L210.692 244.555L184.672 206.627C183.826 205.394 183.706 203.853 184.351 202.505C184.996 201.156 186.27 200.282 187.76 200.166L233.7 196.589L233.664 196.664L210.74 244.624ZM233.541 196.698L187.768 200.262C186.312 200.376 185.068 201.23 184.438 202.547C183.809 203.864 183.926 205.368 184.752 206.572L210.725 244.431L233.541 196.698Z" fill="#DE7E4B"/>
<path d="M164.041 258.55L192.478 294.701L212.197 245.428L166.671 251.979C163.557 252.427 162.096 256.077 164.041 258.55Z" fill="#DE7E4B"/>
<path d="M192.491 294.797L192.439 294.731L164.003 258.58C163.079 257.405 162.859 255.875 163.414 254.487C163.969 253.1 165.184 252.144 166.664 251.931L212.273 245.368L192.491 294.797ZM212.121 245.488L166.677 252.027C165.232 252.235 164.046 253.168 163.504 254.523C162.961 255.878 163.176 257.373 164.079 258.52L192.464 294.606L212.121 245.488Z" fill="#DE7E4B"/>
<path d="M147.287 285.831L154.101 331.319L195.625 298.267L152.825 281.423C149.898 280.272 146.821 282.72 147.287 285.831Z" fill="#DE7E4B"/>
<path d="M154.066 331.409L154.053 331.326L147.24 285.838C147.018 284.36 147.584 282.922 148.754 281.991C149.923 281.06 151.451 280.831 152.842 281.379L195.721 298.252L195.655 298.305L154.066 331.409ZM151.316 281.182C150.423 281.182 149.546 281.483 148.814 282.066C147.671 282.975 147.119 284.38 147.335 285.824L154.136 331.229L195.53 298.281L152.807 281.468C152.32 281.277 151.815 281.182 151.316 281.182Z" fill="#DE7E4B"/>
<path d="M127.65 287.4L96.666 321.394L148.511 332.744L134.564 288.914C133.61 285.917 129.769 285.076 127.65 287.4Z" fill="#DE7E4B"/>
<path d="M148.583 332.809L148.501 332.791L96.5742 321.424L96.6306 321.362L127.615 287.368C128.621 286.263 130.094 285.794 131.554 286.114C133.014 286.434 134.157 287.475 134.61 288.899L148.583 332.809ZM96.7583 321.365L148.44 332.679L134.518 288.929C134.075 287.538 132.96 286.521 131.534 286.209C130.108 285.896 128.669 286.354 127.686 287.433L96.7583 321.365Z" fill="#DE7E4B"/>
<path d="M115.132 273.236L75.5276 269.14C72.7954 268.858 70.7819 271.639 71.9032 274.146L91.0476 316.953L118.021 279.696C119.866 277.149 118.26 273.559 115.132 273.236Z" fill="#DE7E4B"/>
<path d="M91.0381 317.049L71.8596 274.166C71.3257 272.972 71.4648 271.628 72.2316 270.569C72.9983 269.51 74.2332 268.959 75.533 269.092L115.137 273.188C116.624 273.342 117.876 274.248 118.486 275.612C119.096 276.977 118.937 278.514 118.061 279.725L91.0381 317.049ZM75.1485 269.169C74.0233 269.169 72.9821 269.697 72.31 270.625C71.5637 271.656 71.4283 272.965 71.9478 274.126L91.0581 316.857L117.982 279.668C118.838 278.486 118.994 276.984 118.398 275.652C117.802 274.319 116.579 273.434 115.127 273.284L75.5232 269.188C75.3975 269.175 75.2723 269.169 75.1485 269.169Z" fill="#DE7E4B"/>
<path d="M415.963 79.2588H371.78C333.353 79.2588 305.56 88.6859 271.501 126.811C237.443 164.936 191.926 289.63 191.926 289.63C180.234 320.316 145.86 335.726 115.174 324.034C89.165 314.122 72.7462 287.954 75.7844 261.512C75.9185 260.344 74.5779 259.593 73.6619 260.329C67.5576 265.233 52.6307 280.54 52.6975 312.932C52.8054 365.24 96.5591 407.519 148.866 407.126C213.008 406.643 255.965 379.931 255.965 407.134V425.815C255.965 434.94 263.361 442.336 272.486 442.336H304.002C313.127 442.336 320.523 434.94 320.523 425.815V407.134C320.523 391.414 347.973 391.414 347.973 407.134V425.815C347.973 434.939 355.37 442.336 364.494 442.336H396.011C405.135 442.336 412.532 434.939 412.532 425.815C412.532 425.815 412.595 265.309 412.595 247.009C412.595 213.713 441.452 198.686 462.383 188.84C475.363 182.734 483.635 169.676 483.635 155.332V146.93C483.634 109.556 453.337 79.2588 415.963 79.2588Z" fill="#FFCD82"/>
<path d="M396.01 442.384H364.494C355.357 442.384 347.924 434.951 347.924 425.815V407.134C347.924 399.067 340.835 395.392 334.248 395.392C327.661 395.392 320.571 399.067 320.571 407.134V425.815C320.571 434.951 313.138 442.384 304.002 442.384H272.485C263.349 442.384 255.916 434.951 255.916 425.815V407.134C255.916 402.693 254.766 399.59 252.401 397.647C246.465 392.769 233.026 395.427 214.426 399.104C196.681 402.613 174.597 406.98 148.866 407.174C135.935 407.271 123.34 404.8 111.421 399.83C99.8967 395.024 89.5415 388.119 80.6435 379.306C71.9038 370.65 65.0322 360.604 60.2197 349.448C55.222 337.862 52.6748 325.576 52.6487 312.932C52.6199 298.941 55.3699 286.617 60.8224 276.3C65.3924 267.653 70.809 262.558 73.6312 260.291C74.0678 259.94 74.6437 259.89 75.1338 260.161C75.629 260.434 75.8967 260.954 75.8319 261.517C72.804 287.871 89.3568 314.144 115.191 323.989C145.81 335.655 180.213 320.234 191.881 289.613C191.994 289.301 203.439 258.027 218.897 222.498C227.977 201.63 236.643 183.4 244.657 168.313C254.674 149.452 263.694 135.478 271.465 126.779C288.154 108.097 303.571 95.9954 319.982 88.6939C334.724 82.1353 350.699 79.2106 371.779 79.2106H415.962C425.105 79.2106 433.973 81.0011 442.322 84.5323C450.386 87.9432 457.629 92.8259 463.848 99.0452C470.067 105.264 474.95 112.507 478.361 120.571C481.892 128.92 483.683 137.788 483.683 146.93V155.332C483.683 162.381 481.689 169.252 477.917 175.201C474.143 181.154 468.778 185.885 462.403 188.884C445.013 197.065 412.643 212.292 412.643 247.009C412.643 265.1 412.58 424.21 412.579 425.815C412.579 434.951 405.147 442.384 396.01 442.384ZM334.248 395.296C337.854 395.296 341.215 396.346 343.713 398.253C346.531 400.405 348.021 403.476 348.021 407.134V425.815C348.021 434.898 355.411 442.288 364.494 442.288H396.01C405.093 442.288 412.483 434.898 412.483 425.815C412.483 424.21 412.546 265.099 412.546 247.009C412.546 239.177 414.175 231.852 417.387 225.237C420.191 219.463 424.302 214.033 429.607 209.095C439.41 199.971 451.654 193.834 462.361 188.797C475.255 182.731 483.586 169.596 483.586 155.332V146.93C483.586 109.643 453.25 79.3072 415.963 79.3072H371.779C335.187 79.3072 307.054 87.0854 271.537 126.843C253.948 146.532 233.251 189.749 218.986 222.536C203.529 258.063 192.085 289.335 191.971 289.647C189.111 297.154 184.865 303.877 179.351 309.629C174.025 315.184 167.748 319.605 160.692 322.768C153.637 325.93 146.16 327.675 138.469 327.954C130.506 328.243 122.663 326.939 115.157 324.079C108.771 321.645 102.86 318.2 97.5885 313.839C92.4614 309.597 88.073 304.604 84.5454 298.997C81.0203 293.395 78.4657 287.358 76.9525 281.053C75.3989 274.58 74.9895 268.003 75.7362 261.506C75.7963 260.982 75.5477 260.499 75.0873 260.245C74.632 259.994 74.0973 260.04 73.6919 260.366C67.3718 265.444 52.6792 280.73 52.7455 312.931C52.797 337.878 62.7289 361.426 80.7117 379.237C99.0322 397.383 123.24 407.272 148.865 407.077C174.587 406.883 196.666 402.518 214.407 399.01C233.033 395.327 246.491 392.666 252.462 397.572C254.851 399.535 256.013 402.663 256.013 407.134V425.815C256.013 434.898 263.402 442.288 272.485 442.288H304.002C313.085 442.288 320.474 434.898 320.474 425.815V407.134C320.474 403.476 321.964 400.405 324.782 398.253C327.28 396.346 330.642 395.296 334.248 395.296Z" fill="#FFCD82"/>
<path d="M412.595 327.655C411.794 327.655 411.146 327.006 411.146 326.205V262.755C411.146 261.955 411.794 261.306 412.595 261.306C413.395 261.306 414.044 261.955 414.044 262.755V326.205C414.044 327.006 413.395 327.655 412.595 327.655Z" fill="#DE7E4B"/>
<path d="M355.37 354.144C329.528 354.144 308.579 333.195 308.579 307.353V277.371C308.579 251.529 329.528 230.581 355.37 230.581C381.211 230.581 402.16 251.529 402.16 277.371V307.353C402.16 333.195 381.211 354.144 355.37 354.144Z" fill="#F5AA60"/>
<path d="M355.37 354.192C349.047 354.192 342.913 352.953 337.138 350.511C331.561 348.152 326.552 344.775 322.25 340.473C317.949 336.171 314.571 331.162 312.212 325.585C309.77 319.81 308.531 313.676 308.531 307.353V277.371C308.531 271.048 309.77 264.914 312.212 259.139C314.571 253.562 317.949 248.553 322.25 244.251C326.552 239.95 331.561 236.572 337.138 234.213C342.913 231.771 349.047 230.532 355.37 230.532C361.693 230.532 367.827 231.771 373.602 234.213C379.179 236.572 384.188 239.95 388.49 244.251C392.792 248.553 396.169 253.562 398.528 259.139C400.97 264.914 402.209 271.048 402.209 277.371V307.353C402.209 313.676 400.97 319.81 398.528 325.585C396.169 331.162 392.792 336.171 388.49 340.473C384.188 344.775 379.179 348.152 373.602 350.511C367.827 352.953 361.693 354.192 355.37 354.192ZM355.37 230.629C329.596 230.629 308.628 251.597 308.628 277.371V307.353C308.628 333.127 329.596 354.095 355.37 354.095C381.144 354.095 402.112 333.127 402.112 307.353V277.371C402.112 251.597 381.144 230.629 355.37 230.629Z" fill="#F5AA60"/>
<path d="M384.229 244.83H327.336C326.536 244.83 325.887 244.181 325.887 243.381C325.887 242.581 326.535 241.932 327.336 241.932H384.229C385.029 241.932 385.678 242.581 385.678 243.381C385.678 244.181 385.029 244.83 384.229 244.83Z" fill="#DE7E4B"/>
<path d="M398.576 277.484H312.25C311.45 277.484 310.801 276.835 310.801 276.035C310.801 275.234 311.45 274.586 312.25 274.586H398.576C399.376 274.586 400.025 275.234 400.025 276.035C400.025 276.835 399.376 277.484 398.576 277.484Z" fill="#DE7E4B"/>
<path d="M397.737 310.138H312.25C311.45 310.138 310.801 309.489 310.801 308.689C310.801 307.889 311.45 307.24 312.25 307.24H397.737C398.537 307.24 399.186 307.889 399.186 308.689C399.186 309.489 398.537 310.138 397.737 310.138Z" fill="#DE7E4B"/>
<path d="M383.53 342.792H327.336C326.536 342.792 325.887 342.144 325.887 341.343C325.887 340.543 326.535 339.894 327.336 339.894H383.53C384.33 339.894 384.979 340.543 384.979 341.343C384.979 342.144 384.33 342.792 383.53 342.792Z" fill="#DE7E4B"/>
<path d="M403.318 136.51C407.354 136.51 410.625 133.238 410.625 129.203C410.625 125.167 407.354 121.895 403.318 121.895C399.282 121.895 396.011 125.167 396.011 129.203C396.011 133.238 399.282 136.51 403.318 136.51Z" fill="#541A30"/>
<path d="M403.318 136.558C399.262 136.558 395.962 133.258 395.962 129.202C395.962 125.146 399.262 121.847 403.318 121.847C407.374 121.847 410.673 125.146 410.673 129.202C410.673 133.258 407.373 136.558 403.318 136.558ZM403.318 121.943C399.315 121.943 396.059 125.2 396.059 129.202C396.059 133.205 399.315 136.461 403.318 136.461C407.32 136.461 410.576 133.205 410.576 129.202C410.576 125.2 407.32 121.943 403.318 121.943Z" fill="#541A30"/>
<path d="M441.443 136.51C445.479 136.51 448.75 133.238 448.75 129.203C448.75 125.167 445.479 121.895 441.443 121.895C437.407 121.895 434.136 125.167 434.136 129.203C434.136 133.238 437.407 136.51 441.443 136.51Z" fill="#541A30"/>
<path d="M441.443 136.558C437.387 136.558 434.087 133.258 434.087 129.202C434.087 125.146 437.387 121.847 441.443 121.847C445.499 121.847 448.798 125.146 448.798 129.202C448.798 133.258 445.498 136.558 441.443 136.558ZM441.443 121.943C437.44 121.943 434.184 125.2 434.184 129.202C434.184 133.205 437.44 136.461 441.443 136.461C445.445 136.461 448.702 133.205 448.702 129.202C448.702 125.2 445.445 121.943 441.443 121.943Z" fill="#541A30"/>
<path d="M406.898 165.227L414.086 152.776H397.497L404.686 165.227C405.177 166.079 406.406 166.079 406.898 165.227Z" fill="white"/>
<path d="M405.791 165.914C405.312 165.914 404.883 165.667 404.643 165.252L397.413 152.728H414.17L414.128 152.801L406.939 165.252C406.7 165.667 406.271 165.914 405.791 165.914ZM397.58 152.825L404.727 165.203C404.949 165.588 405.347 165.818 405.792 165.818C406.236 165.818 406.634 165.588 406.856 165.203L414.003 152.825H397.58Z" fill="white"/>
<path d="M423.487 165.227L430.675 152.776H414.086L421.275 165.227C421.766 166.079 422.995 166.079 423.487 165.227Z" fill="white"/>
<path d="M422.38 165.914C421.901 165.914 421.472 165.667 421.232 165.252L414.002 152.728H430.759L430.717 152.801L423.528 165.252C423.289 165.667 422.86 165.914 422.38 165.914ZM414.169 152.825L421.316 165.203C421.538 165.588 421.936 165.818 422.38 165.818C422.825 165.818 423.223 165.588 423.445 165.203L430.592 152.825H414.169Z" fill="white"/>
<path d="M440.075 165.227L447.263 152.776H430.674L437.862 165.227C438.354 166.079 439.583 166.079 440.075 165.227Z" fill="white"/>
<path d="M438.968 165.914C438.489 165.914 438.06 165.667 437.82 165.252L430.59 152.728H447.347L447.305 152.801L440.116 165.252C439.877 165.667 439.447 165.914 438.968 165.914ZM430.757 152.825L437.904 165.203C438.126 165.588 438.524 165.818 438.968 165.818C439.413 165.818 439.81 165.588 440.033 165.203L447.18 152.825H430.757Z" fill="white"/>
<path d="M449.012 154.226H395.748C394.948 154.226 394.299 153.577 394.299 152.777C394.299 151.976 394.948 151.328 395.748 151.328H449.012C449.813 151.328 450.462 151.976 450.462 152.777C450.462 153.577 449.813 154.226 449.012 154.226Z" fill="#541A30"/>
<path d="M297.779 271.546C281.177 287.084 264.576 302.623 247.974 318.162C235.366 329.962 215.028 318.698 218.344 301.75C222.817 278.882 227.291 256.014 231.765 233.146" fill="#FFCD82"/>
<path d="M235.937 323.083C232.91 323.083 229.907 322.298 227.164 320.778C223.93 318.987 221.369 316.348 219.758 313.145C218.018 309.687 217.513 305.743 218.296 301.74L231.717 233.137L231.812 233.156L218.391 301.759C216.884 309.459 220.346 316.892 227.21 320.694C234.075 324.496 242.212 323.488 247.941 318.126L297.746 271.511L297.812 271.581L248.007 318.197C245.029 320.984 241.417 322.647 237.563 323.007C237.021 323.058 236.479 323.083 235.937 323.083Z" fill="#FFCD82"/>
<path d="M235.936 324.483C232.672 324.483 229.436 323.639 226.485 322.004C223.004 320.076 220.245 317.23 218.507 313.774C216.626 310.036 216.078 305.782 216.921 301.471L230.342 232.868C230.496 232.083 231.257 231.57 232.042 231.724C232.828 231.878 233.34 232.639 233.186 233.425L219.765 302.028C218.378 309.121 221.566 315.967 227.889 319.469C234.211 322.97 241.706 322.042 246.983 317.103L296.788 270.488C297.373 269.941 298.29 269.971 298.836 270.556C299.383 271.14 299.353 272.057 298.769 272.604L248.964 319.219C245.757 322.221 241.859 324.013 237.693 324.401C237.107 324.456 236.521 324.483 235.936 324.483Z" fill="#DE7E4B"/>
<path d="M330.464 110.817C337.785 107.097 342.482 101.646 340.956 98.643C339.43 95.6396 332.258 96.2207 324.937 99.9408C317.616 103.661 312.919 109.111 314.445 112.115C315.971 115.118 323.143 114.537 330.464 110.817Z" fill="#F5AA60"/>
<path d="M319.056 114.498C316.767 114.498 315.203 113.703 314.405 112.132C313.605 110.558 314.062 108.635 315.728 106.572C317.527 104.344 320.705 102.034 324.918 99.893C334.723 94.9108 339.655 95.9668 341.002 98.6167C341.837 100.26 341.492 102.079 339.977 104.025C338.259 106.231 335.066 108.529 330.489 110.856C325.911 113.182 322.173 114.405 319.377 114.493C319.269 114.496 319.161 114.498 319.056 114.498ZM336.248 96.4844C333.633 96.4844 329.929 97.4553 324.962 99.9793C320.761 102.114 317.593 104.415 315.803 106.633C314.163 108.664 313.71 110.55 314.491 112.088C315.308 113.695 316.95 114.472 319.375 114.396C322.155 114.309 325.88 113.089 330.445 110.77C338.965 106.44 342.684 102.14 340.916 98.6605C340.266 97.3822 338.76 96.4844 336.248 96.4844Z" fill="#F5AA60"/>
<path d="M298.786 126.394C303.468 122.229 305.878 117.295 304.169 115.375C302.46 113.454 297.28 115.274 292.598 119.439C287.916 123.604 285.506 128.538 287.215 130.459C288.924 132.379 294.105 130.56 298.786 126.394Z" fill="#F5AA60"/>
<path d="M289.643 131.551C288.63 131.551 287.807 131.199 287.184 130.499C286.285 129.489 286.249 127.977 287.08 126.127C287.977 124.132 289.875 121.81 292.571 119.411C298.848 113.827 302.699 113.653 304.211 115.352C305.149 116.406 305.248 117.82 304.505 119.554C303.664 121.517 301.752 123.834 298.824 126.439C295.895 129.045 293.371 130.674 291.324 131.281C290.716 131.461 290.155 131.551 289.643 131.551ZM301.825 114.5C299.799 114.5 296.746 115.827 292.636 119.484C289.95 121.873 288.059 124.184 287.169 126.166C286.354 127.979 286.385 129.455 287.256 130.435C288.168 131.459 289.527 131.712 291.296 131.188C293.33 130.585 295.841 128.963 298.759 126.367C304.202 121.525 306.112 117.635 304.139 115.416C303.636 114.851 302.866 114.5 301.825 114.5Z" fill="#F5AA60"/>
<path d="M281.254 156.647C286.542 150.364 288.738 143.512 286.161 141.343C283.583 139.174 277.207 142.509 271.92 148.791C266.632 155.074 264.435 161.926 267.013 164.095C269.59 166.265 275.966 162.93 281.254 156.647Z" fill="#F5AA60"/>
<path d="M269.618 165.086C268.62 165.086 267.74 164.769 266.985 164.134C264.711 162.22 264.804 157.177 271.886 148.762C278.968 140.347 283.921 139.394 286.196 141.308C287.606 142.495 287.999 144.304 287.363 146.687C286.643 149.389 284.601 152.751 281.295 156.68C277.988 160.608 275.024 163.194 272.485 164.366C271.444 164.846 270.486 165.086 269.618 165.086ZM283.731 140.568C281.076 140.568 277.085 142.735 271.96 148.824C264.924 157.184 264.809 162.176 267.047 164.06C268.426 165.22 270.242 165.294 272.444 164.278C274.971 163.113 277.923 160.535 281.221 156.617C287.374 149.305 289.119 143.894 286.133 141.382C285.525 140.87 284.721 140.568 283.731 140.568Z" fill="#F5AA60"/>
<path d="M323.018 148.429C330.427 142.987 333.794 134.982 330.539 130.55C327.283 126.118 318.638 126.937 311.229 132.38C303.82 137.822 300.453 145.827 303.708 150.259C306.964 154.691 315.609 153.872 323.018 148.429Z" fill="#F5AA60"/>
<path d="M310.517 153.78C307.662 153.78 305.354 152.608 303.652 150.291C301.956 147.981 301.657 145.162 302.789 142.139C304.015 138.865 306.918 135.478 311.184 132.344C315.45 129.211 319.55 127.454 323.041 127.264C326.264 127.088 328.865 128.216 330.562 130.526C332.333 132.938 332.725 135.606 331.726 138.456C330.59 141.698 327.664 145.068 323.03 148.472C318.395 151.876 314.304 153.66 310.871 153.774C310.752 153.778 310.634 153.78 310.517 153.78ZM323.626 127.338C320.383 127.338 316.239 128.752 311.241 132.422C306.991 135.545 304.099 138.916 302.88 142.173C301.759 145.164 302.054 147.951 303.73 150.234C305.482 152.618 307.883 153.776 310.868 153.678C314.282 153.565 318.354 151.787 322.973 148.395C327.591 145.002 330.506 141.648 331.635 138.424C332.622 135.606 332.235 132.968 330.484 130.583C329.085 128.679 326.783 127.338 323.626 127.338Z" fill="#F5AA60"/>
<path d="M361.678 124.919C370.036 121.091 374.955 113.935 372.666 108.935C370.376 103.935 361.744 102.985 353.386 106.813C345.028 110.64 340.108 117.796 342.398 122.796C344.687 127.796 353.319 128.746 361.678 124.919Z" fill="#F5AA60"/>
<path d="M350.816 127.86C350.082 127.86 349.385 127.803 348.725 127.689C345.749 127.175 343.609 125.535 342.363 122.814C341.17 120.208 341.449 117.387 343.17 114.657C345.035 111.699 348.564 108.971 353.376 106.768C358.188 104.564 362.56 103.675 366.017 104.196C369.209 104.677 371.527 106.309 372.72 108.915C373.966 111.636 373.809 114.328 372.253 116.916C370.484 119.861 366.935 122.568 361.707 124.962C357.498 126.889 353.846 127.86 350.816 127.86ZM363.996 104.147C360.933 104.147 357.322 105.067 353.416 106.856C342.29 111.95 340.457 118.419 342.451 122.774C343.683 125.464 345.799 127.086 348.742 127.594C352.108 128.175 356.456 127.26 361.667 124.874C366.877 122.489 370.411 119.794 372.17 116.867C373.708 114.307 373.864 111.645 372.632 108.955C371.453 106.38 369.161 104.767 366.002 104.291C365.364 104.195 364.695 104.147 363.996 104.147Z" fill="#F5AA60"/>
<path d="M293.932 186.587C299.705 179.432 300.914 170.833 296.634 167.38C292.354 163.927 284.205 166.928 278.433 174.083C272.661 181.238 271.451 189.838 275.731 193.29C280.011 196.743 288.16 193.742 293.932 186.587Z" fill="#F5AA60"/>
<path d="M280.907 195.254C279.037 195.254 277.292 194.608 275.697 193.321C273.466 191.521 272.457 188.872 272.778 185.661C273.127 182.182 275.068 178.165 278.391 174.046C281.714 169.926 285.229 167.18 288.555 166.103C291.626 165.109 294.429 165.535 296.66 167.335C298.989 169.214 300.05 171.693 299.813 174.704C299.543 178.129 297.576 182.135 293.965 186.61C290.355 191.086 286.856 193.856 283.565 194.844C282.654 195.117 281.768 195.254 280.907 195.254ZM291.684 165.676C290.693 165.676 289.656 165.849 288.585 166.195C285.277 167.266 281.778 170.002 278.466 174.107C270.783 183.631 272.029 190.238 275.757 193.246C278.06 195.104 280.678 195.61 283.538 194.751C286.809 193.769 290.292 191.01 293.89 186.55C297.488 182.089 299.449 178.101 299.716 174.696C299.951 171.719 298.902 169.268 296.599 167.41C295.172 166.258 293.506 165.676 291.684 165.676Z" fill="#F5AA60"/>
<path d="M175.267 335.641C182.264 331.343 186.507 325.532 184.744 322.661C182.981 319.791 175.879 320.948 168.882 325.246C161.884 329.543 157.641 335.355 159.405 338.225C161.168 341.096 168.27 339.939 175.267 335.641Z" fill="#F5AA60"/>
<path d="M163.466 340.264C161.56 340.264 160.181 339.589 159.359 338.251C157.803 335.718 159.48 330.961 168.851 325.205C178.223 319.448 183.224 320.103 184.78 322.636C185.745 324.207 185.548 326.048 184.194 328.109C182.659 330.447 179.663 332.995 175.287 335.683C170.912 338.37 167.284 339.891 164.505 340.203C164.143 340.244 163.796 340.264 163.466 340.264ZM180.64 320.862C177.994 320.862 174.137 322.071 168.902 325.287C159.591 331.006 157.91 335.708 159.441 338.201C161.483 341.526 167.093 340.602 175.237 335.6C183.38 330.598 186.74 326.012 184.698 322.687C184.028 321.596 182.701 320.862 180.64 320.862Z" fill="#F5AA60"/>
<path d="M148.507 341.285C148.809 337.93 142.425 334.612 134.246 333.875C126.067 333.137 119.192 335.26 118.89 338.615C118.587 341.97 124.972 345.288 133.15 346.026C141.329 346.763 148.204 344.641 148.507 341.285Z" fill="#F5AA60"/>
<path d="M137.73 346.306C136.325 346.306 134.793 346.232 133.135 346.082C128.021 345.621 124.204 344.672 121.789 343.261C119.66 342.017 118.665 340.455 118.83 338.62C119.097 335.659 123.285 332.848 134.239 333.835C145.193 334.823 148.811 338.338 148.544 341.298C148.378 343.134 147.12 344.492 144.803 345.335C143.026 345.982 140.657 346.306 137.73 346.306ZM130.035 333.73C122.255 333.73 119.152 336.124 118.926 338.628C118.764 340.423 119.744 341.954 121.838 343.178C124.24 344.581 128.044 345.526 133.144 345.986C138.243 346.446 142.155 346.196 144.769 345.245C147.048 344.415 148.286 343.084 148.447 341.289C148.71 338.375 145.113 334.912 134.23 333.931C132.702 333.794 131.306 333.73 130.035 333.73Z" fill="#F5AA60"/>
<path d="M166.393 371.496C175.401 369.662 181.815 363.807 180.718 358.418C179.621 353.03 171.429 350.148 162.42 351.982C153.412 353.816 146.999 359.671 148.096 365.059C149.193 370.448 157.385 373.33 166.393 371.496Z" fill="#F5AA60"/>
<path d="M159.362 372.325C156.927 372.325 154.849 371.965 153.145 371.246C150.363 370.072 148.649 367.99 148.052 365.058C147.48 362.249 148.39 359.565 150.685 357.295C153.171 354.836 157.226 352.978 162.412 351.921C167.599 350.865 172.058 350.989 175.307 352.279C178.307 353.47 180.195 355.584 180.768 358.393C181.365 361.325 180.602 363.912 178.501 366.081C176.111 368.548 172.042 370.382 166.407 371.53C163.805 372.06 161.452 372.325 159.362 372.325ZM168.97 351.292C167.058 351.292 164.885 351.516 162.432 352.016C150.441 354.459 147.19 360.345 148.147 365.039C148.737 367.938 150.432 369.996 153.183 371.157C156.33 372.485 160.773 372.579 166.388 371.435C172.003 370.291 176.055 368.467 178.432 366.014C180.51 363.869 181.264 361.311 180.673 358.412C179.913 354.679 176.407 351.292 168.97 351.292Z" fill="#F5AA60"/>
<path d="M208.422 344C215.774 338.481 219.058 330.442 215.756 326.044C212.455 321.646 203.819 322.555 196.466 328.074C189.114 333.593 185.831 341.632 189.132 346.03C192.433 350.428 201.07 349.519 208.422 344Z" fill="#F5AA60"/>
<path d="M195.897 349.462C193.092 349.462 190.809 348.313 189.105 346.044C187.384 343.751 187.056 340.936 188.157 337.901C189.349 334.614 192.216 331.197 196.449 328.02C200.682 324.842 204.763 323.043 208.252 322.816C211.474 322.605 214.086 323.707 215.806 325.999C217.603 328.393 218.023 331.056 217.054 333.917C215.952 337.171 213.061 340.571 208.462 344.023C203.864 347.476 199.792 349.302 196.359 349.452C196.204 349.459 196.05 349.462 195.897 349.462ZM209.015 322.887C208.767 322.887 208.515 322.896 208.258 322.912C204.788 323.138 200.725 324.931 196.507 328.097C186.72 335.444 186.306 342.155 189.182 345.986C190.958 348.352 193.372 349.487 196.355 349.355C199.767 349.206 203.821 347.386 208.404 343.946C212.987 340.506 215.866 337.121 216.962 333.886C217.92 331.058 217.505 328.424 215.729 326.058C214.165 323.975 211.855 322.887 209.015 322.887Z" fill="#F5AA60"/>
<path d="M121.649 362.662C123.713 357.565 118.478 350.636 109.957 347.186C101.436 343.736 92.8555 345.071 90.7916 350.168C88.7278 355.265 93.9624 362.194 102.483 365.644C111.005 369.094 119.585 367.759 121.649 362.662Z" fill="#F5AA60"/>
<path d="M112.813 368.117C109.915 368.117 106.449 367.306 102.466 365.693C97.1357 363.535 93.4702 360.989 91.571 358.126C89.9015 355.61 89.6243 352.927 90.7473 350.154C91.8231 347.497 94.0658 345.763 97.233 345.14C100.664 344.465 105.07 345.159 109.976 347.145C114.882 349.132 118.529 351.7 120.524 354.571C122.365 357.222 122.77 360.028 121.694 362.685C120.571 365.458 118.506 367.192 115.556 367.838C114.708 368.024 113.792 368.117 112.813 368.117ZM99.9626 344.986C99.0037 344.986 98.0978 345.069 97.2516 345.235C94.118 345.852 91.8998 347.565 90.8368 350.19C89.7266 352.932 90.0006 355.584 91.6515 358.073C93.5397 360.919 97.1903 363.453 102.502 365.604C107.814 367.755 112.198 368.474 115.535 367.744C118.452 367.105 120.494 365.391 121.605 362.648C123.403 358.208 121.282 351.828 109.94 347.235C106.263 345.746 102.87 344.986 99.9626 344.986Z" fill="#F5AA60"/>
</svg>
